PathFileType	4	(X/Y/Z)	TVC_26_BWA4_walk_RCNL2025.trc
DataRate	CameraRate	NumFrames	NumMarkers	Units	OrigDataRate	OrigDataStartFrame	OrigNumFrames
100	100	11	27	mm	100	52	415
Frame#	Time	R_Shoulder			L_Shoulder			C7			J_Notch			R_Elbow			L_Elbow			R_Wrist			L_Wrist			R_Asis			L_Asis			R_Psis			L_Psis			Sacral			Thoracic			Sternum			R_Thigh_Lateral			R_Knee_Lateral			R_Shank_Lateral			R_Ankle_Lateral			R_Heel			R_Toe			L_Thigh_Lateral			L_Knee_Lateral			L_Shank_Lateral			L_Ankle_Lateral			L_Heel			L_Toe		
		X1	Y1	Z1	X2	Y2	Z2	X3	Y3	Z3	X4	Y4	Z4	X5	Y5	Z5	X6	Y6	Z6	X7	Y7	Z7	X8	Y8	Z8	X9	Y9	Z9	X10	Y10	Z10	X11	Y11	Z11	X12	Y12	Z12	X13	Y13	Z13	X14	Y14	Z14	X15	Y15	Z15	X16	Y16	Z16	X17	Y17	Z17	X18	Y18	Z18	X19	Y19	Z19	X20	Y20	Z20	X21	Y21	Z21	X22	Y22	Z22	X23	Y23	Z23	X24	Y24	Z24	X25	Y25	Z25	X26	Y26	Z26	X27	Y27	Z27
52	0.51000000	-482.914886	1355.364258	-37.674309	-526.554993	1359.682983	-355.207184	-579.258118	1393.436401	-179.839767	-426.894165	1303.268188	-198.156784	-504.364868	1016.756592	83.862061	-574.308167	1034.957031	-463.071472	-452.007828	812.793915	137.575928	-421.307053	866.839783	-451.500610	-395.221649	953.464233	-30.354528	-409.336456	947.617554	-321.955292	-611.038879	943.316589	-91.528503	-615.278198	937.114014	-238.393799	-613.158539	940.215302	-164.961151	-627.974182	1111.570190	-179.279770	-366.780212	1068.923096	-206.845276	-361.204620	566.575867	-8.743095	-339.310120	447.512634	-79.085144	-371.078461	263.952545	-41.829948	-414.711243	69.780838	-112.147324	-466.892548	56.161575	-157.834625	-281.665314	39.819511	-144.145752	-457.302551	575.825562	-354.701813	-509.807465	459.137787	-287.759918	-632.445435	272.188751	-302.847992	-726.487488	105.867722	-206.697968	-763.529968	111.033119	-147.179108	-606.406555	38.397587	-214.460861
53	0.52000000	-477.756531	1356.896973	-37.201485	-521.344299	1360.636597	-354.723724	-574.028748	1394.551514	-179.475739	-421.608917	1304.519653	-197.595108	-496.698883	1017.896729	84.322327	-568.589783	1035.879761	-462.520325	-441.130081	814.721313	137.156502	-415.069962	868.265930	-451.136368	-389.886078	954.664001	-29.508173	-404.011047	949.278198	-320.903625	-605.473206	944.626099	-90.726135	-609.914185	938.476074	-237.662125	-607.693695	941.551086	-164.194130	-622.478210	1112.641602	-178.500946	-361.452789	1070.273438	-205.621094	-364.644073	565.665833	-7.736221	-339.453613	447.353546	-78.277634	-371.943329	263.877411	-41.221241	-414.879059	69.691681	-111.944290	-467.002808	56.102249	-157.680084	-281.835876	39.866360	-144.024826	-449.611450	577.426636	-356.566681	-500.895996	459.769318	-290.513580	-626.400574	274.748657	-304.631317	-722.898682	110.370842	-207.749115	-759.624695	117.179413	-147.942352	-605.966187	38.375771	-214.596222
54	0.53000000	-472.591003	1358.432007	-36.705593	-516.164307	1361.610962	-354.209930	-568.793823	1395.680420	-179.078217	-416.339508	1305.764893	-197.017990	-488.955627	1019.046143	84.774803	-562.955383	1036.812134	-461.912811	-430.069733	816.744324	136.624668	-408.857452	869.748291	-450.713272	-384.540527	955.780457	-28.807974	-398.875061	950.919250	-319.855621	-599.973572	945.977600	-89.880600	-604.670410	939.851990	-236.895157	-602.321991	942.914795	-163.387878	-617.027100	1113.743164	-177.692902	-356.187134	1071.591431	-204.385056	-368.306091	564.976074	-6.766080	-339.622070	447.288605	-77.502480	-372.678009	263.823547	-40.617725	-415.057983	69.587349	-111.737099	-467.125153	56.043781	-157.507126	-282.009857	39.907753	-143.890656	-441.608215	579.007690	-358.674774	-491.407227	460.225830	-293.519653	-619.640686	277.163239	-306.648621	-718.846741	115.067993	-209.039886	-755.207764	123.575417	-148.945557	-605.358887	38.472076	-214.865417
55	0.54000000	-467.410919	1359.943604	-36.191650	-511.008301	1362.592651	-353.670380	-563.548889	1396.807861	-178.650421	-411.083527	1306.984741	-196.431015	-481.129364	1020.187439	85.217270	-557.404175	1037.739990	-461.254211	-418.835464	818.844543	135.980896	-402.674576	871.265717	-450.231339	-379.193695	956.787415	-28.260977	-393.933075	952.496826	-318.830505	-594.554321	947.353210	-89.002480	-599.552734	941.219727	-236.099579	-597.053528	944.286469	-162.551029	-611.625305	1114.862915	-176.864120	-350.984711	1072.849243	-203.160233	-371.855316	564.544800	-5.878215	-339.785583	447.296539	-76.775520	-373.256439	263.779266	-40.028564	-415.237091	69.471725	-111.531525	-467.253723	55.992435	-157.321136	-282.177399	39.941292	-143.752838	-433.336517	580.551025	-360.988190	-481.377502	460.510193	-296.734802	-612.166748	279.394989	-308.876251	-714.286194	119.907059	-210.542908	-750.211243	130.112320	-150.168427	-604.451599	38.739262	-215.363647
56	0.55000000	-462.208740	1361.407593	-35.665115	-505.868774	1363.568726	-353.110291	-558.289185	1397.919922	-178.196152	-405.838257	1308.161377	-195.839951	-473.214966	1021.304443	85.647049	-551.933289	1038.650391	-460.550751	-407.437836	821.002808	135.226765	-396.526627	872.796204	-449.691269	-373.858704	957.662354	-27.866146	-389.183197	953.970581	-317.850464	-589.229492	948.734863	-88.103920	-594.565247	942.559753	-235.283081	-591.897369	945.647308	-161.693501	-606.276978	1115.989502	-176.023331	-345.846710	1074.021118	-201.970474	-374.983521	564.376953	-5.089364	-339.921173	447.354431	-76.106720	-373.678925	263.733887	-39.460873	-415.407532	69.349174	-111.333382	-467.383087	55.952278	-157.129044	-282.330566	39.964798	-143.620209	-424.850311	582.046265	-363.461548	-470.855347	460.641815	-300.109558	-603.994202	281.427399	-311.287018	-709.162842	124.816826	-212.237656	-744.570679	136.653931	-151.593170	-603.077454	39.228798	-216.198959
57	0.56000000	-456.976868	1362.802002	-35.131771	-500.737701	1364.527344	-352.535156	-553.010254	1399.004272	-177.719727	-400.600983	1309.278809	-195.250580	-465.208160	1022.382568	86.060974	-546.537781	1039.531738	-459.809479	-395.889603	823.200104	134.364819	-390.419113	874.317810	-449.094238	-368.552368	958.388062	-27.614595	-384.616547	955.306274	-316.939758	-584.011902	950.105164	-87.198158	-589.710083	943.855225	-234.454315	-586.860992	946.980194	-160.826237	-600.985596	1117.113037	-175.179291	-340.774048	1075.083984	-200.839340	-377.408020	564.453857	-4.390471	-340.008881	447.438721	-75.501724	-373.963806	263.678589	-38.921043	-415.562683	69.224274	-111.148193	-467.508148	55.925198	-156.938721	-282.464417	39.976238	-143.499359	-416.212524	583.493469	-366.045593	-459.899567	460.657867	-303.591095	-595.155090	283.267731	-313.848877	-703.415039	129.708084	-214.112518	-738.226257	143.040619	-153.206039	-601.041565	39.983322	-217.483612
58	0.57000000	-451.708038	1364.107788	-34.597599	-495.607025	1365.458374	-351.950714	-547.708008	1400.050171	-177.225754	-395.369171	1310.323242	-194.668579	-457.105774	1023.409546	86.455292	-541.210938	1040.374268	-459.037903	-384.205719	825.417969	133.398380	-384.358002	875.809052	-448.441666	-363.294220	958.953247	-27.490309	-380.217346	956.477966	-316.123352	-578.912415	951.447876	-86.299118	-584.987305	945.093140	-233.622650	-581.949860	948.270508	-159.960884	-595.754089	1118.225220	-174.340469	-335.767242	1076.019165	-199.789108	-378.889557	564.736755	-3.756860	-340.029144	447.527161	-74.963646	-374.137970	263.606628	-38.416012	-415.698059	69.101509	-110.980881	-467.624268	55.911274	-156.758240	-282.577271	39.973801	-143.393845	-407.492401	584.904541	-368.690491	-448.577515	460.611389	-307.125427	-585.697754	284.945251	-316.527954	-696.975952	134.476624	-216.165726	-731.124023	149.097015	-154.999268	-598.131287	41.028622	-219.324005
59	0.58000000	-446.395630	1365.309448	-34.068615	-490.469025	1366.353149	-351.362610	-542.378967	1401.049194	-176.719040	-390.140472	1311.283691	-194.099304	-448.905914	1024.375244	86.825706	-535.944641	1041.170166	-458.243927	-372.403229	827.639160	132.330978	-378.349625	877.249664	-447.735016	-358.105316	959.353577	-27.471292	-375.963348	957.470337	-315.425018	-573.939209	952.748108	-85.421005	-580.394409	946.264099	-232.798080	-577.166809	949.506104	-159.109543	-590.584534	1119.318726	-173.514847	-330.826324	1076.812622	-198.839813	-379.260773	565.167419	-3.161275	-339.962463	447.600494	-74.494637	-374.228180	263.513855	-37.954037	-415.811157	68.984955	-110.835571	-467.727966	55.909515	-156.594833	-282.670441	39.956024	-143.304153	-398.760925	586.301758	-371.348633	-436.963501	460.566620	-310.658447	-575.683594	286.506042	-319.294647	-689.777527	139.008026	-218.405624	-723.217041	154.642838	-156.973373	-594.130798	42.366398	-221.810150
60	0.59000000	-441.033875	1366.395386	-33.550766	-485.316742	1367.205078	-350.776428	-537.020752	1401.994873	-176.204407	-384.912964	1312.151978	-193.547699	-440.608124	1025.272705	87.167336	-530.729858	1041.914185	-457.435486	-360.501022	829.848450	131.165546	-372.400589	878.621185	-446.975800	-353.006775	959.591675	-27.531042	-371.827271	958.279419	-314.864807	-569.097595	953.993103	-84.577888	-575.926270	947.362610	-231.990967	-572.511932	950.677856	-158.284428	-585.477905	1120.388306	-172.709747	-325.950714	1077.456177	-198.008255	-378.447571	565.672058	-2.587740	-339.790863	447.644257	-74.096764	-374.254608	263.398438	-37.544952	-415.901093	68.878082	-110.715439	-467.817413	55.918568	-156.453918	-282.747223	39.922161	-143.228653	-390.085876	587.713501	-373.976349	-425.135651	460.592651	-314.137451	-565.180847	288.003632	-322.130035	-681.753723	143.183517	-220.849991	-714.466858	159.505753	-159.139420	-588.838379	43.969090	-225.005508
61	0.60000000	-435.618408	1367.358154	-33.049751	-480.144196	1368.009521	-350.197266	-531.631958	1402.883057	-175.686462	-379.685150	1312.923096	-193.018158	-432.213531	1026.097168	87.474724	-525.557312	1042.603516	-456.620483	-348.519333	832.032837	129.903744	-366.517654	879.907684	-446.165558	-348.018402	959.677368	-27.640278	-367.778625	958.913513	-314.456512	-564.389343	955.172119	-83.783386	-571.575012	948.386780	-231.211960	-567.982178	951.779449	-157.497673	-580.434143	1121.429688	-171.931641	-321.139191	1077.947266	-197.307312	-376.475159	566.172913	-2.039890	-339.500305	447.649811	-73.772095	-374.227325	263.260834	-37.199852	-415.968475	68.783600	-110.622581	-467.892731	55.937103	-156.338638	-282.811584	39.872837	-143.164871	-381.525726	589.168030	-376.535095	-413.171509	460.756775	-317.513336	-554.255249	289.488434	-325.028839	-672.845276	146.886108	-223.524261	-704.845520	163.533783	-161.520294	-582.084534	45.778183	-228.937393
62	0.61000000	-430.146362	1368.194458	-32.570881	-474.946930	1368.763916	-349.629852	-526.212402	1403.711426	-175.169617	-374.456146	1313.595093	-192.514420	-423.724854	1026.847168	87.741951	-520.417664	1043.237427	-455.806427	-336.479340	834.182068	128.545532	-360.707397	881.096100	-445.306152	-343.157410	959.627075	-27.768810	-363.786102	959.391968	-314.205414	-559.812866	956.277100	-83.050301	-567.329773	949.338013	-230.471756	-563.571320	952.807556	-156.761028	-575.451965	1122.439941	-171.186142	-316.389862	1078.289185	-196.745239	-373.458557	566.604675	-1.540226	-339.083405	447.614594	-73.522102	-374.146027	263.103363	-36.929977	-416.015076	68.703415	-110.557953	-467.955872	55.963890	-156.249908	-282.866821	39.810734	-143.111023	-373.123077	590.687439	-378.992798	-401.142914	461.117615	-320.742004	-542.959717	290.998627	-327.997467	-663.002808	150.006683	-226.458649	-694.338684	166.605942	-164.150024	-573.746033	47.707508	-233.589615
